<?xml version="1.0" standalone="no"?>
<!DOCTYPE svg PUBLIC "-//W3C//DTD SVG 20010904//EN"
 "http://www.w3.org/TR/2001/REC-SVG-20010904/DTD/svg10.dtd">
<svg version="1.0" xmlns="http://www.w3.org/2000/svg"
 width="429.000000pt" height="399.000000pt" viewBox="0 0 429.000000 399.000000"
 preserveAspectRatio="xMidYMid meet">

<g transform="translate(0.000000,399.000000) scale(0.100000,-0.100000)"
fill="#000000" stroke="none">
<path d="M1985 3973 c-765 -67 -1425 -502 -1740 -1148 -199 -408 -247 -858
-136 -1286 83 -322 231 -589 464 -838 323 -346 726 -562 1207 -648 126 -23
174 -26 370 -27 249 -1 366 13 566 64 465 120 884 396 1165 766 211 279 344
612 378 953 36 347 -31 715 -184 1022 -213 425 -588 775 -1038 969 -319 136
-718 202 -1052 173z"/>
</g>
</svg>
