<?xml version="1.0" standalone="no"?>
<!DOCTYPE svg PUBLIC "-//W3C//DTD SVG 20010904//EN"
 "http://www.w3.org/TR/2001/REC-SVG-20010904/DTD/svg10.dtd">
<svg version="1.0" xmlns="http://www.w3.org/2000/svg"
 width="968.000000pt" height="298.000000pt" viewBox="0 0 968.000000 298.000000"
 preserveAspectRatio="xMidYMid meet">

<g transform="translate(0.000000,298.000000) scale(0.100000,-0.100000)"
fill="#000000" stroke="none">
<path d="M1505 2775 c-776 -83 -1420 -155 -1433 -159 -52 -17 -55 -2 153 -989
108 -512 200 -939 205 -948 5 -9 17 -19 26 -23 8 -3 119 -6 245 -6 126 0 229
-4 229 -9 0 -4 -25 -108 -55 -230 -30 -122 -55 -235 -55 -251 0 -36 38 -65 73
-56 12 3 258 185 546 406 l524 400 387 0 c372 0 388 1 405 20 14 16 41 197
148 985 l130 966 -23 24 c-17 18 -33 25 -59 24 -20 -1 -670 -70 -1446 -154z"/>
<path d="M8018 2808 l-68 -31 0 -106 c0 -115 26 -883 35 -1021 2 -47 6 -123 6
-170 l2 -85 -189 -17 c-104 -9 -213 -17 -241 -17 l-53 -1 -1 198 c0 293 -10
328 -90 326 -73 -2 -74 -6 -61 -226 7 -106 12 -223 12 -260 l0 -66 -87 -6
c-192 -12 -284 -25 -308 -40 -32 -21 -34 -75 -5 -101 22 -20 47 -19 288 8 111
13 113 13 117 -7 2 -12 9 -111 15 -221 23 -432 66 -646 146 -721 63 -61 204
-70 302 -20 56 28 152 126 152 155 0 38 -21 32 -79 -21 -69 -65 -115 -88 -169
-88 -165 0 -216 166 -224 730 l-3 225 100 22 c102 23 375 66 381 61 1 -2 8
-107 14 -233 6 -127 17 -349 26 -495 l15 -265 32 -27 c41 -36 72 -44 103 -27
21 11 24 18 20 44 -25 135 -86 824 -86 963 0 60 1 62 25 62 14 0 28 6 31 14 8
22 -14 55 -40 62 -23 6 -24 9 -32 162 -4 86 -8 408 -9 714 0 307 -2 558 -5
558 -3 0 -35 -14 -72 -32z"/>
<path d="M5535 2799 c-71 -10 -332 -39 -580 -64 -662 -67 -1120 -127 -1230
-161 -52 -16 -95 -48 -95 -71 0 -7 11 -19 24 -28 21 -14 50 -12 337 20 384 43
623 55 632 33 11 -29 37 -225 52 -388 19 -219 40 -560 70 -1156 30 -599 35
-660 51 -682 9 -13 27 -17 73 -17 33 0 65 5 71 11 9 9 5 75 -14 255 -48 454
-81 958 -110 1669 -8 184 -11 338 -8 342 8 7 288 49 497 73 72 9 208 18 303
22 129 5 175 10 179 19 13 35 -71 146 -109 143 -7 -1 -71 -10 -143 -20z"/>
<path d="M8843 1883 c-45 -9 -47 -20 -35 -226 7 -106 12 -222 12 -259 l0 -66
-87 -6 c-192 -12 -284 -25 -308 -40 -32 -21 -34 -75 -5 -101 22 -20 47 -19
288 8 111 13 113 13 117 -7 2 -12 9 -111 15 -221 18 -328 43 -503 89 -627 44
-116 85 -142 216 -142 77 0 97 3 140 26 59 30 155 128 155 157 0 38 -21 32
-79 -21 -77 -72 -120 -91 -185 -86 -109 9 -153 80 -186 303 -13 86 -32 637
-22 647 18 17 356 75 594 103 32 3 60 11 63 16 9 14 -4 48 -23 58 -10 5 -125
-1 -282 -15 -146 -12 -286 -23 -312 -23 l-48 -1 -1 198 c0 210 -8 285 -30 307
-17 16 -55 24 -86 18z"/>
<path d="M6146 1555 c-31 -31 -20 -75 38 -155 29 -41 104 -158 166 -260 62
-102 123 -200 135 -218 l22 -33 -24 -87 c-31 -110 -96 -289 -167 -461 -31 -74
-56 -141 -56 -148 0 -23 69 -16 92 10 11 12 67 137 124 277 58 140 106 256
108 257 1 2 21 -30 43 -69 163 -297 163 -296 210 -319 28 -14 48 -18 54 -12
12 12 3 34 -115 283 -51 107 -103 220 -116 251 l-22 56 58 159 c57 158 84 249
84 292 0 26 -54 64 -84 60 -16 -3 -22 -17 -33 -82 -14 -81 -90 -326 -102 -326
-3 0 -50 69 -103 153 -130 203 -259 381 -279 385 -9 2 -24 -4 -33 -13z"/>
<path d="M5621 1309 c-158 -63 -300 -331 -318 -599 -11 -186 27 -296 125 -358
77 -49 118 -62 198 -62 139 0 207 41 412 247 148 148 192 212 192 278 0 29 -2
28 -61 -37 -78 -87 -252 -238 -342 -295 -167 -109 -296 -110 -352 -2 -13 25
-12 27 57 79 220 168 364 369 398 558 25 140 -26 200 -179 208 -61 3 -87 0
-130 -17z m178 -105 c22 -15 23 -21 16 -77 -3 -33 -15 -82 -25 -108 -24 -65
-97 -166 -162 -224 -55 -50 -164 -125 -181 -125 -27 0 32 229 87 337 58 116
157 213 215 213 15 0 37 -7 50 -16z"/>
</g>
</svg>
